<?xml version="1.0" encoding="utf-8"?>

<!DOCTYPE svg PUBLIC "-//W3C//DTD SVG 1.1//EN" "http://www.w3.org/Graphics/SVG/1.1/DTD/svg11.dtd">
<!-- Uploaded to: SVG Repo, www.svgrepo.com, Generator: SVG Repo Mixer Tools -->
<svg height="800px" width="800px" version="1.1" id="_x32_" xmlns="http://www.w3.org/2000/svg" xmlns:xlink="http://www.w3.org/1999/xlink" 
	 viewBox="0 0 512 512"  xml:space="preserve">
<style type="text/css">
	.st0{fill:#000000;}
</style>
<g>
	<path class="st0" d="M407.217,212.92c22.108-33.892,19.058-79.271,19.058-79.271c-12.266-7.032-24.532-3.347-34.687,3.355V118.59
		C391.588,37.504,330.885,0,255.996,0c-74.88,0-135.584,37.504-135.584,118.59v18.423c-10.162-6.711-22.429-10.396-34.695-3.364
		c0,0-3.035,45.379,19.057,79.271c-31.99,19.218-72.038,52.773-85.95,105.2c0,0,158.117,58.352,237.171,193.879
		c79.063-135.528,237.18-193.879,237.18-193.879C479.256,265.694,439.215,232.138,407.217,212.92z M308.704,427.294l-52.708-33.883
		l-52.708,33.883l-3.756-60.238l56.465,9.416l56.473-9.416L308.704,427.294z M365.515,229.65c0,65.384-77.425,118.59-109.519,118.59
		s-109.51-53.206-109.51-118.59v-43.292c0,0,3.484-75.29,24.339-82.828c20.864-7.53,60.832,18.825,85.171,69.647
		c24.34-50.822,64.332-77.176,85.188-69.647c20.856,7.538,24.332,82.828,24.332,82.828V229.65z"/>
	<path class="st0" d="M230.581,197.885l-45.17-6.357c0,0,2.119,24.709,19.772,25.423
		C222.827,217.648,230.581,197.885,230.581,197.885z"/>
	<path class="st0" d="M306.826,216.951c17.644-0.714,19.763-25.423,19.763-25.423l-45.178,6.357
		C281.411,197.885,289.181,217.648,306.826,216.951z"/>
	<path class="st0" d="M201.883,255.065c0,0-0.329,2.585,0,6.551v5.675h0.844c1.557,7.192,5.426,16.288,14.69,23.769l5.226-23.769
		h66.716l5.226,23.769c9.263-7.481,13.124-16.577,14.682-23.769h0.851v-5.675c0.321-3.966,0-6.551,0-6.551H201.883z"/>
</g>
</svg>